# xmcd CD database file
#
# Track frame offsets:
#	183
#	42335
#	75983
#	93440
#	128685
#	138295
#	146585
#	151255
#	168985
#
# Disc length: 2660 seconds
#
# Revision: 3
# Processed by: cddbd v1.5.2PL0 Copyright (c) Steve Scherf et al.
# Submitted via: CDex 1.70beta2
#
DISCID=680a6209
DTITLE=Lester Bowie - Works - ECM
DYEAR=1988
DGENRE=Jazz
TTITLE0=Charlie M
TTITLE1=Rose Drop
TTITLE2=B Funk
TTITLE3=When the Spirit Returns
TTITLE4=Deb Deb's Face
TTITLE5=Monkey Waltz
TTITLE6=Fradulent Fanfare
TTITLE7=Almost Christmas
TTITLE8=Let the Good Times Roll
EXTD=YEAR: 1988
EXTT0=
EXTT1=
EXTT2=
EXTT3=
EXTT4=
EXTT5=
EXTT6=
EXTT7=
EXTT8=
PLAYORDER=
